<?xml version="1.0" encoding="utf-8"?>
<!-- Generator: Adobe Illustrator 22.0.1, SVG Export Plug-In . SVG Version: 6.00 Build 0)  -->
<svg version="1.1" id="Слой_1" xmlns="http://www.w3.org/2000/svg" xmlns:xlink="http://www.w3.org/1999/xlink" x="0px" y="0px"
	 viewBox="0 0 100 125" style="enable-background:new 0 0 100 125;" xml:space="preserve">
<title>08</title>
<path d="M66.4,20c-1.6-1.6-4.1-1.6-5.7,0c0,0,0,0,0,0L33.6,47.2c-1.6,1.6-1.6,4.1,0,5.7c0,0,0,0,0,0L60.8,80
	c1.5,1.6,4.1,1.7,5.7,0.1c1.6-1.5,1.7-4.1,0.1-5.7c0,0-0.1-0.1-0.1-0.1L42.1,50l24.4-24.3C68,24.1,68,21.6,66.4,20
	C66.4,20,66.4,20,66.4,20z"/>
</svg>
