<?xml version="1.0" encoding="utf-8"?>
<!-- Generator: Adobe Illustrator 22.0.1, SVG Export Plug-In . SVG Version: 6.00 Build 0)  -->
<svg version="1.1" id="Слой_1" xmlns="http://www.w3.org/2000/svg" xmlns:xlink="http://www.w3.org/1999/xlink" x="0px" y="0px"
	 viewBox="0 0 100 125" style="enable-background:new 0 0 100 125;" xml:space="preserve">
<path d="M80.9,32.9c0-3.3-2.7-5.9-6-5.9h-8.1C66,12,58.6,5.6,51.6,5.6S37.1,12,36.4,27h-9.7c-3.3,0-5.9,2.6-6,5.9L15,89.1v0.5
	c0,3.3,2.7,6.4,6,6.4h59.5c3.3,0,6-3,6-6.4L80.9,32.9z M51.6,8.7c3,0,5.9,1.6,8,4.7c1.6,2.4,3.6,5.6,3.9,13.6H39.6
	C40.3,14,46.1,8.7,51.6,8.7z M80.6,92H21c-1.5,0-2.7-1.2-2.7-2.6L24,33.1v-0.3c0-1.5,1.2-2.9,2.7-2.9h48.2c1.5,0,2.7,1.4,2.7,2.9
	l5.7,56.4C83.3,90.8,82,92,80.6,92z"/>
<circle cx="65.5" cy="39.6" r="2.4"/>
<circle cx="37.3" cy="39.6" r="2.4"/>
</svg>
