<?xml version="1.0" encoding="utf-8"?>
<!-- Generator: Adobe Illustrator 22.0.1, SVG Export Plug-In . SVG Version: 6.00 Build 0)  -->
<svg version="1.1" id="Слой_1" xmlns="http://www.w3.org/2000/svg" xmlns:xlink="http://www.w3.org/1999/xlink" x="0px" y="0px"
	 viewBox="0 0 100 125" style="enable-background:new 0 0 100 125;" xml:space="preserve">
<title>Search v5.2</title>
<desc>Created with Sketch.</desc>
<g>
	<g>
		<path d="M55.4,56.8c-0.1-0.1-0.3-0.1-0.5,0c0,0-0.3,0.2-0.5,0.4C52,59,49.1,60,46,60c-7.7,0-14-6.3-14-14s6.3-14,14-14
			s14,6.3,14,14c0,3.2-1.1,6.1-2.8,8.5c-0.2,0.2-0.4,0.5-0.4,0.5c-0.1,0.1-0.1,0.3,0,0.5l2.2,2.2c0.1,0.1,0.3,0.1,0.5,0l0.2-0.2
			c0.1-0.1,0.3-0.1,0.5,0l7.5,7.5c0.1,0.1,0.1,0.3,0,0.5l-2.4,2.4c-0.1,0.1-0.3,0.1-0.5,0l-7.5-7.5c-0.1-0.1-0.1-0.3,0-0.5l0.2-0.2
			c0.1-0.1,0.1-0.3,0-0.5L55.4,56.8z M46,58c6.6,0,12-5.4,12-12s-5.4-12-12-12s-12,5.4-12,12S39.4,58,46,58z"/>
	</g>
</g>
</svg>
